{
  "title": "Prisoners 2013 TS XViD-UNiQUE",
  "uid": 9029384,
  "size": 1527628046,
  "categoryP": "video",
  "categoryS": "movies",
  "magnet": "?xt=urn:btih:94748ba4da78dc11aaec813cc6566e76d0a4d6cb&amp;dn=Prisoners+2013+TS+XViD-UNiQUE&amp;tr=udp%3A%2F%2Ftracker.openbittorrent.com%3A80&amp;tr=udp%3A%2F%2Fopen.demonii.com%3A1337&amp;tr=udp%3A%2F%2Ftracker.coppersurfer.tk%3A6969&amp;tr=udp%3A%2F%2Fexodus.desync.com%3A6969",
  "seeders": 43,
  "leechers": 4,
  "uploader": "xxxlavalxxx",
  "files": -1,
  "time": 1381430662,
  "description": " &lt;a href=&quot;http://www.imdb.com/title/tt1392214/&quot; rel=&quot;nofollow&quot; target=&quot;_NEW&quot;&gt;http://www.imdb.com/title/tt1392214/&lt;/a&gt;\n\n\nWhen Keller Dover's daughter and her friend go missing, he takes matters into his own hands as the police pursue multiple leads and the pressure mounts. But just how far will this desperate father go to protect his family?\n\nDirector: Denis Villeneuve\nWriter: Aaron Guzikowski\nStars: Hugh Jackman, Jake Gyllenhaal, Viola Davis\nGenres: Crime | Drama | Thriller\nCountry: USA\nLanguage: English\n\n\n\nPrisoners 2013 TS XViD UNiQUE\nClick To Resize\n\nFormat: AVI\nFormat/Info: Audio Video Interleave\nFile size: 1.42 GiB\nDuration: 2h 25mn\nOverall bit rate: 1 390 Kbps\nWriting application: VirtualDubMod 1.5.10.2 (build 2540/release)\nWriting library: VirtualDubMod build 2540/release\n\nVideo\nID: 0\nFormat: MPEG-4 Visual\nFormat profile: Advanced Simple@L5\nFormat settings, BVOP: 2\nFormat settings, QPel: No\nFormat settings, GMC: No warppoints\nFormat settings, Matrix: Default (H.263)\nMuxing mode: Packed bitstream\nCodec ID: XVID\nCodec ID/Hint: XviD\nDuration: 2h 25mn\nBit rate: 1 250 Kbps\nWidth: 720 pixels\nHeight: 384 pixels\nDisplay aspect ratio: 1.85:1\nFrame rate: 29.970 fps\nColor space: YUV\nChroma subsampling: 4:2:0\nBit depth: 8 bits\nScan type: Progressive\nCompression mode: Lossy\nBits/(Pixel*Frame): 0.151\nStream size: 1.27 GiB (90%)\nWriting library: XviD 64\n\nAudio\nID: 1\nFormat: MPEG Audio\nFormat version: Version 1\nFormat profile: Layer 3\nCodec ID: 55\nCodec ID/Hint: MP3\nDuration: 2h 25mn\nBit rate mode: Constant\nBit rate: 128 Kbps\nChannel(s): 2 channels\nSampling rate: 44.1 KHz\nCompression mode: Lossy\nDelay relative to video: 5s 526ms\nStream size: 133 MiB (9%)\nAlignment: Split accross interleaves\nInterleave, duration: 33 ms (1.00 video frame)\nInterleave, preload duration: 500 ms\n\nSource Used\n\nVideo Blacktop - Thanks\n\nAudio NiLLENiUM\n\n\n\n &lt;a href=&quot;\nhttp://i.imgur.com/aNm7yYU.png&quot; rel=&quot;nofollow&quot; target=&quot;_NEW&quot;&gt;\nhttp://i.imgur.com/aNm7yYU.png&lt;/a&gt; &lt;a href=&quot;\nhttp://i.imgur.com/QNLcrc8.png&quot; rel=&quot;nofollow&quot; target=&quot;_NEW&quot;&gt;\nhttp://i.imgur.com/QNLcrc8.png&lt;/a&gt; &lt;a href=&quot;\nhttp://i.imgur.com/2RKg5wL.png&quot; rel=&quot;nofollow&quot; target=&quot;_NEW&quot;&gt;\nhttp://i.imgur.com/2RKg5wL.png&lt;/a&gt; &lt;a href=&quot;\nhttp://i.imgur.com/6ZpSCxz.png&quot; rel=&quot;nofollow&quot; target=&quot;_NEW&quot;&gt;\nhttp://i.imgur.com/6ZpSCxz.png&lt;/a&gt;",
  "parsed": {
    "xt": "urn:btih:94748ba4da78dc11aaec813cc6566e76d0a4d6cb",
    "dn": "Prisoners 2013 TS XViD-UNiQUE",
    "tr": [
      "udp://exodus.desync.com:6969",
      "udp://open.demonii.com:1337",
      "udp://tracker.coppersurfer.tk:6969",
      "udp://tracker.openbittorrent.com:80"
    ],
    "infoHash": "94748ba4da78dc11aaec813cc6566e76d0a4d6cb",
    "infoHashBuffer": {
      "type": "Buffer",
      "data": [
        148,
        116,
        139,
        164,
        218,
        120,
        220,
        17,
        170,
        236,
        129,
        60,
        198,
        86,
        110,
        118,
        208,
        164,
        214,
        203
      ]
    },
    "name": "Prisoners 2013 TS XViD-UNiQUE",
    "announce": [
      "udp://exodus.desync.com:6969",
      "udp://open.demonii.com:1337",
      "udp://tracker.coppersurfer.tk:6969",
      "udp://tracker.openbittorrent.com:80"
    ],
    "urlList": []
  },
  "previous": 55,
  "peers": 32,
  "last_updated": "2016-12-27T07:23:21.389Z"
}